<svg width="178" height="233" xmlns="http://www.w3.org/2000/svg" xmlns:xlink="http://www.w3.org/1999/xlink" overflow="hidden"><defs><clipPath id="clip0"><rect x="148" y="106" width="178" height="233"/></clipPath></defs><g clip-path="url(#clip0)" transform="translate(-148 -106)"><path d="M153 195C153 148.608 190.608 111 237 111 283.392 111 321 148.608 321 195 321 241.392 283.392 279 237 279 190.608 279 153 241.392 153 195Z" stroke="#41719C" stroke-width="8" stroke-miterlimit="8" fill="none" fill-rule="evenodd"/><rect x="221" y="179" width="32" height="32" stroke="#41719C" stroke-width="8" stroke-miterlimit="8" fill="none"/><path d="M221 137 236.662 144.983 253 137 253 166 221 166 221 137Z" stroke="#41719C" stroke-width="8" stroke-miterlimit="8" fill="none" fill-rule="evenodd"/><path d="M295 179 287.292 194.662 295 211 267 211 267 179 295 179Z" stroke="#41719C" stroke-width="8" stroke-miterlimit="8" fill="none" fill-rule="evenodd"/><path d="M253 253 237.338 245.017 221 253 221 224 253 224 253 253Z" stroke="#41719C" stroke-width="8" stroke-miterlimit="8" fill="none" fill-rule="evenodd"/><path d="M179 211 186.983 195.338 179 179 208 179 208 211 179 211Z" stroke="#41719C" stroke-width="8" stroke-miterlimit="8" fill="none" fill-rule="evenodd"/><path d="M216.222 330.784 195.354 308.494 163.937 311.775 181.088 264.6 233.373 283.609 216.222 330.784Z" stroke="#41719C" stroke-width="8" stroke-miterlimit="8" fill="none" fill-rule="evenodd"/><path d="M311.985 310.203 281.612 307.065 260.05 330.149 242.053 283.29 293.988 263.344 311.985 310.203Z" stroke="#41719C" stroke-width="8" stroke-miterlimit="8" fill="none" fill-rule="evenodd"/></g></svg>